<svg width="24" height="24" viewBox="0 0 24 24" fill="none" xmlns="http://www.w3.org/2000/svg">
<path d="M19.5 24H3.5C3.224 24 3 23.776 3 23.5V17.5C3 16.122 4.121 15 5.5 15H17.5C18.879 15 20 16.122 20 17.5V23.5C20 23.776 19.776 24 19.5 24ZM4 23H19V17.5C19 16.673 18.327 16 17.5 16H5.5C4.673 16 4 16.673 4 17.5V23Z" fill="black"/>
<path d="M17.5 16H5.5C5.224 16 5 15.776 5 15.5V11.5C5 10.122 6.121 9 7.5 9H15.5C16.879 9 18 10.122 18 11.5V15.5C18 15.776 17.776 16 17.5 16ZM6 15H17V11.5C17 10.673 16.327 10 15.5 10H7.5C6.673 10 6 10.673 6 11.5V15Z" fill="black"/>
<path d="M17.498 13C17.076 13 16.653 12.9 16.275 12.711C15.789 12.468 15.209 12.468 14.722 12.711C13.957 13.094 13.043 13.094 12.275 12.711C11.789 12.468 11.209 12.468 10.722 12.711C9.957 13.094 9.043 13.094 8.275 12.711C7.789 12.468 7.209 12.468 6.722 12.711C6.345 12.9 5.922 13 5.5 13C5.224 13 5 12.776 5 12.5C5 12.224 5.224 12 5.5 12C5.768 12 6.036 11.937 6.275 11.817C7.041 11.434 7.957 11.434 8.722 11.817C9.208 12.06 9.788 12.059 10.275 11.817C11.041 11.434 11.957 11.434 12.722 11.817C13.208 12.06 13.788 12.059 14.275 11.817C15.041 11.434 15.957 11.434 16.722 11.817C16.962 11.937 17.23 12 17.498 12C17.774 12 17.998 12.224 17.998 12.5C17.998 12.776 17.774 13 17.498 13Z" fill="black"/>
<path d="M19.5 19.9717C19.077 19.9717 18.654 19.8717 18.276 19.6817C17.792 19.4397 17.211 19.4387 16.724 19.6817C15.958 20.0647 15.042 20.0647 14.277 19.6817C13.791 19.4387 13.211 19.4397 12.724 19.6817C11.958 20.0647 11.042 20.0647 10.277 19.6817C9.791 19.4387 9.211 19.4397 8.724 19.6817C7.958 20.0647 7.042 20.0647 6.277 19.6817C5.791 19.4387 5.211 19.4397 4.724 19.6817C4.347 19.8707 3.924 19.9707 3.5 19.9707C3.224 19.9707 3 19.7467 3 19.4707C3 19.1947 3.224 18.9707 3.5 18.9707C3.769 18.9707 4.037 18.9077 4.275 18.7877C5.043 18.4047 5.958 18.4047 6.723 18.7877C7.209 19.0307 7.789 19.0307 8.276 18.7877C9.042 18.4047 9.956 18.4047 10.723 18.7877C11.209 19.0307 11.789 19.0307 12.276 18.7877C13.042 18.4047 13.956 18.4047 14.723 18.7877C15.209 19.0307 15.789 19.0307 16.276 18.7877C17.042 18.4047 17.956 18.4047 18.723 18.7877C18.962 18.9077 19.231 18.9717 19.498 18.9717C19.774 18.9717 19.998 19.1957 19.998 19.4717C19.998 19.7477 19.776 19.9717 19.5 19.9717Z" fill="black"/>
<path d="M12.5 10H10.5C10.224 10 10 9.776 10 9.5V5.5C10 4.673 10.673 4 11.5 4C12.327 4 13 4.673 13 5.5V9.5C13 9.776 12.776 10 12.5 10ZM11 9H12V5.5C12 5.224 11.775 5 11.5 5C11.225 5 11 5.224 11 5.5V9Z" fill="black"/>
<path d="M11.5 4.99981C10.673 4.99981 10 4.32681 10 3.49981C10 2.89581 10.794 0.905809 11.037 0.310809C11.191 -0.0651914 11.808 -0.0651914 11.963 0.310809C12.206 0.905809 13 2.89581 13 3.49981C13 4.32681 12.327 4.99981 11.5 4.99981ZM11.5 1.87981C11.221 2.63781 11.003 3.30881 11 3.49981C11 3.77581 11.225 3.99981 11.5 3.99981C11.775 3.99981 12 3.77581 12 3.49981C11.997 3.30881 11.779 2.63781 11.5 1.87981Z" fill="black"/>
</svg>
