<svg width="93" height="30" viewBox="0 0 93 30" fill="none" xmlns="http://www.w3.org/2000/svg">
<path d="M17.14 7.96V22H13.72V13.58L10.58 22H7.82L4.66 13.56V22H1.24V7.96H5.28L9.22 17.68L13.12 7.96H17.14ZM24.6794 22.16C23.586 22.16 22.5994 21.9267 21.7194 21.46C20.8527 20.9933 20.166 20.3267 19.6594 19.46C19.166 18.5933 18.9194 17.58 18.9194 16.42C18.9194 15.2733 19.1727 14.2667 19.6794 13.4C20.186 12.52 20.8794 11.8467 21.7594 11.38C22.6394 10.9133 23.626 10.68 24.7194 10.68C25.8127 10.68 26.7994 10.9133 27.6794 11.38C28.5594 11.8467 29.2527 12.52 29.7594 13.4C30.266 14.2667 30.5194 15.2733 30.5194 16.42C30.5194 17.5667 30.2594 18.58 29.7394 19.46C29.2327 20.3267 28.5327 20.9933 27.6394 21.46C26.7594 21.9267 25.7727 22.16 24.6794 22.16ZM24.6794 19.2C25.3327 19.2 25.886 18.96 26.3394 18.48C26.806 18 27.0394 17.3133 27.0394 16.42C27.0394 15.5267 26.8127 14.84 26.3594 14.36C25.9194 13.88 25.3727 13.64 24.7194 13.64C24.0527 13.64 23.4994 13.88 23.0594 14.36C22.6194 14.8267 22.3994 15.5133 22.3994 16.42C22.3994 17.3133 22.6127 18 23.0394 18.48C23.4794 18.96 24.026 19.2 24.6794 19.2ZM31.6538 16.4C31.6538 15.2533 31.8671 14.2467 32.2938 13.38C32.7338 12.5133 33.3271 11.8467 34.0738 11.38C34.8204 10.9133 35.6538 10.68 36.5738 10.68C37.3604 10.68 38.0471 10.84 38.6338 11.16C39.2338 11.48 39.6938 11.9 40.0138 12.42V10.84H43.4338V22H40.0138V20.42C39.6804 20.94 39.2138 21.36 38.6138 21.68C38.0271 22 37.3404 22.16 36.5538 22.16C35.6471 22.16 34.8204 21.9267 34.0738 21.46C33.3271 20.98 32.7338 20.3067 32.2938 19.44C31.8671 18.56 31.6538 17.5467 31.6538 16.4ZM40.0138 16.42C40.0138 15.5667 39.7738 14.8933 39.2938 14.4C38.8271 13.9067 38.2538 13.66 37.5738 13.66C36.8938 13.66 36.3138 13.9067 35.8338 14.4C35.3671 14.88 35.1338 15.5467 35.1338 16.4C35.1338 17.2533 35.3671 17.9333 35.8338 18.44C36.3138 18.9333 36.8938 19.18 37.5738 19.18C38.2538 19.18 38.8271 18.9333 39.2938 18.44C39.7738 17.9467 40.0138 17.2733 40.0138 16.42ZM60.148 10.72C61.5346 10.72 62.6346 11.14 63.448 11.98C64.2746 12.82 64.688 13.9867 64.688 15.48V22H61.288V15.94C61.288 15.22 61.0946 14.6667 60.708 14.28C60.3346 13.88 59.8146 13.68 59.148 13.68C58.4813 13.68 57.9546 13.88 57.568 14.28C57.1946 14.6667 57.008 15.22 57.008 15.94V22H53.608V15.94C53.608 15.22 53.4146 14.6667 53.028 14.28C52.6546 13.88 52.1346 13.68 51.468 13.68C50.8013 13.68 50.2746 13.88 49.888 14.28C49.5146 14.6667 49.328 15.22 49.328 15.94V22H45.908V10.84H49.328V12.24C49.6746 11.7733 50.128 11.4067 50.688 11.14C51.248 10.86 51.8813 10.72 52.588 10.72C53.428 10.72 54.1746 10.9 54.828 11.26C55.4946 11.62 56.0146 12.1333 56.388 12.8C56.7746 12.1867 57.3013 11.6867 57.968 11.3C58.6346 10.9133 59.3613 10.72 60.148 10.72ZM72.1598 22.16C71.0665 22.16 70.0798 21.9267 69.1998 21.46C68.3332 20.9933 67.6465 20.3267 67.1398 19.46C66.6465 18.5933 66.3998 17.58 66.3998 16.42C66.3998 15.2733 66.6532 14.2667 67.1598 13.4C67.6665 12.52 68.3598 11.8467 69.2398 11.38C70.1198 10.9133 71.1065 10.68 72.1998 10.68C73.2932 10.68 74.2798 10.9133 75.1598 11.38C76.0398 11.8467 76.7332 12.52 77.2398 13.4C77.7465 14.2667 77.9998 15.2733 77.9998 16.42C77.9998 17.5667 77.7398 18.58 77.2198 19.46C76.7132 20.3267 76.0132 20.9933 75.1198 21.46C74.2398 21.9267 73.2532 22.16 72.1598 22.16ZM72.1598 19.2C72.8132 19.2 73.3665 18.96 73.8198 18.48C74.2865 18 74.5198 17.3133 74.5198 16.42C74.5198 15.5267 74.2932 14.84 73.8398 14.36C73.3998 13.88 72.8532 13.64 72.1998 13.64C71.5332 13.64 70.9798 13.88 70.5398 14.36C70.0998 14.8267 69.8798 15.5133 69.8798 16.42C69.8798 17.3133 70.0932 18 70.5198 18.48C70.9598 18.96 71.5065 19.2 72.1598 19.2ZM79.1342 16.4C79.1342 15.2533 79.3476 14.2467 79.7742 13.38C80.2142 12.5133 80.8076 11.8467 81.5542 11.38C82.3009 10.9133 83.1342 10.68 84.0542 10.68C84.8409 10.68 85.5276 10.84 86.1142 11.16C86.7142 11.48 87.1742 11.9 87.4942 12.42V10.84H90.9142V22H87.4942V20.42C87.1609 20.94 86.6942 21.36 86.0942 21.68C85.5076 22 84.8209 22.16 84.0342 22.16C83.1276 22.16 82.3009 21.9267 81.5542 21.46C80.8076 20.98 80.2142 20.3067 79.7742 19.44C79.3476 18.56 79.1342 17.5467 79.1342 16.4ZM87.4942 16.42C87.4942 15.5667 87.2542 14.8933 86.7742 14.4C86.3076 13.9067 85.7342 13.66 85.0542 13.66C84.3742 13.66 83.7942 13.9067 83.3142 14.4C82.8476 14.88 82.6142 15.5467 82.6142 16.4C82.6142 17.2533 82.8476 17.9333 83.3142 18.44C83.7942 18.9333 84.3742 19.18 85.0542 19.18C85.7342 19.18 86.3076 18.9333 86.7742 18.44C87.2542 17.9467 87.4942 17.2733 87.4942 16.42Z" fill="#F43F5E"/>
</svg>
